<svg width="18" height="22" viewBox="0 0 18 22" fill="none" xmlns="http://www.w3.org/2000/svg">
<path d="M14.7375 8.25H12.75V2C12.75 1.3125 12.1875 0.75 11.5 0.75H6.5C5.8125 0.75 5.25 1.3125 5.25 2V8.25H3.2625C2.15 8.25 1.5875 9.6 2.375 10.3875L8.1125 16.125C8.6 16.6125 9.3875 16.6125 9.875 16.125L15.6125 10.3875C16.4 9.6 15.85 8.25 14.7375 8.25ZM0.25 20.75C0.25 21.4375 0.8125 22 1.5 22H16.5C17.1875 22 17.75 21.4375 17.75 20.75C17.75 20.0625 17.1875 19.5 16.5 19.5H1.5C0.8125 19.5 0.25 20.0625 0.25 20.75Z" fill="black"/>
</svg>
