<svg id="calendar" xmlns="http://www.w3.org/2000/svg" width="26.01" height="24.965" viewBox="0 0 26.01 24.965">
  <g id="Group_15" data-name="Group 15">
    <path id="Path_159" data-name="Path 159" d="M1182.2,577.433h-15.35a5.337,5.337,0,0,0-5.33,5.34v11.37a5.335,5.335,0,0,0,5.33,5.33h15.35a5.335,5.335,0,0,0,5.33-5.33v-11.37A5.337,5.337,0,0,0,1182.2,577.433Zm2.6,16.93a2.8,2.8,0,0,1-2.97,2.59h-14.61a2.8,2.8,0,0,1-2.97-2.59v-9.73h20.55Z" transform="translate(-1161.522 -574.508)"/>
    <rect id="Rectangle_6" data-name="Rectangle 6" width="2.52" height="6.301" rx="1.26" transform="translate(6.027)"/>
    <rect id="Rectangle_7" data-name="Rectangle 7" width="2.52" height="6.301" rx="1.26" transform="translate(17.38)"/>
  </g>
</svg>
