<svg xmlns="http://www.w3.org/2000/svg" viewBox="0 0 206.31 63.91"><defs><style>.cls-1{fill:#1d1d1b;}</style></defs><g id="Layer_2" data-name="Layer 2"><g id="Layer_1-2" data-name="Layer 1"><path class="cls-1" d="M78.36,28a14.36,14.36,0,0,1-5.65-5.33,14.66,14.66,0,0,1-2-7.72,14.67,14.67,0,0,1,2-7.73,14.36,14.36,0,0,1,5.65-5.33A17.1,17.1,0,0,1,86.48,0,17.47,17.47,0,0,1,93.6,1.4a13.62,13.62,0,0,1,5.26,4l-5.18,4.68A8.56,8.56,0,0,0,86.9,6.74a8.44,8.44,0,0,0-4.18,1,7.12,7.12,0,0,0-2.83,2.9,8.84,8.84,0,0,0-1,4.3,8.83,8.83,0,0,0,1,4.29,7.06,7.06,0,0,0,2.83,2.9,8.33,8.33,0,0,0,4.18,1,8.56,8.56,0,0,0,6.78-3.37l5.18,4.68a13.62,13.62,0,0,1-5.26,4,17.47,17.47,0,0,1-7.12,1.4A17.1,17.1,0,0,1,78.36,28Z"/><path class="cls-1" d="M129.86.58V29.35h-8.14V18.13h-11.1V29.35h-8.14V.58h8.14V11.39h11.1V.58Z"/><path class="cls-1" d="M135.61.58h8.14V29.35h-8.14Z"/><path class="cls-1" d="M157.76,7h-8.84V.58h25.77V7H165.9V29.35h-8.14Z"/><path class="cls-1" d="M195.58,23.76H183.41l-2.26,5.59h-8.31L185.55.58h8l12.74,28.77h-8.47Zm-2.39-6-3.7-9.21-3.69,9.21Z"/><path class="cls-1" d="M78.72,62a14.27,14.27,0,0,1-5.65-5.32,15.53,15.53,0,0,1,0-15.46,14.2,14.2,0,0,1,5.65-5.32A17,17,0,0,1,86.84,34,17.45,17.45,0,0,1,94,35.38a13.75,13.75,0,0,1,5.27,4L94,44.1a8.53,8.53,0,0,0-6.79-3.37,8.42,8.42,0,0,0-4.17,1,7.21,7.21,0,0,0-2.84,2.9,9.64,9.64,0,0,0,0,8.59,7.08,7.08,0,0,0,2.84,2.9,8.32,8.32,0,0,0,4.17,1A8.53,8.53,0,0,0,94,53.8l5.18,4.69a13.85,13.85,0,0,1-5.27,4,17.45,17.45,0,0,1-7.11,1.39A17,17,0,0,1,78.72,62Z"/><path class="cls-1" d="M130.21,34.56V63.34h-8.14V52.11H111V63.34h-8.14V34.56H111V45.37h11.1V34.56Z"/><path class="cls-1" d="M136,34.56h8.14V63.34H136Z"/><path class="cls-1" d="M169.84,35.85a9.77,9.77,0,0,1,6,9.36,9.72,9.72,0,0,1-6,9.31,16.44,16.44,0,0,1-6.78,1.29h-5v7.53H149.9V34.56h13.16A16.44,16.44,0,0,1,169.84,35.85Zm-3.49,12.46a3.84,3.84,0,0,0,1.27-3.1,3.92,3.92,0,0,0-1.27-3.13A5.61,5.61,0,0,0,162.57,41h-4.52V49.4h4.52A5.66,5.66,0,0,0,166.35,48.31Z"/><path class="cls-1" d="M14,56.34c-1,0-1.94,0-2.89,0l-2.56-.06a.28.28,0,0,1-.28-.16,19.59,19.59,0,0,1-2-5.51,1.1,1.1,0,0,1,0-.18c0-.21,0-.42,0-.66h5.05c.13,0,.18,0,.2.17a17.66,17.66,0,0,0,1.81,5.34C13.55,55.62,13.77,56,14,56.34Z"/><path class="cls-1" d="M13.45,60h.28l19.33-.19a8.68,8.68,0,0,0,8.57-7.24,9.26,9.26,0,0,0,.12-1.49c0-1.9,0-3.8,0-5.7a7.6,7.6,0,0,0-4.29-6.85c-1.8-1-3.66-1.78-5.5-2.67l-1.14-.54a.39.39,0,0,1-.23-.31,9.74,9.74,0,0,1,0-3.61,5.57,5.57,0,0,1,.52-1.7.31.31,0,0,1,.28-.17c1.15-.23,2.31-.45,3.46-.69,2.65-.57,5.26-1.25,7.86-2.05a.49.49,0,0,0,.27-.22l2.45-5.19.07-.19-2.54-.36c-1.08-.15-2.15-.3-3.23-.43s-2.36-.28-3.55-.38c-1.39-.12-2.79-.21-4.19-.31l-2.17-.14c-.14,0-.17.05-.21.16A45.95,45.95,0,0,0,27,36.33c.06,1.74.2,3.47.43,5.19a38.67,38.67,0,0,0,4.37,13.89c.17.3.31.62.48,1H32l-14,0a1.11,1.11,0,0,1-1-.54,16.2,16.2,0,0,1-2.4-5.2l0-.16c-.05-.27-.09-.54-.13-.83H25.1A6.94,6.94,0,0,0,20,44.13a7.75,7.75,0,0,0-2.14-.26c-2.45,0-4.9.06-7.35.1-1.74,0-3.47.08-5.21.12a.92.92,0,0,1-.82-.47,23.3,23.3,0,0,1-2.41-5.31,43.18,43.18,0,0,1-1.8-7.59c-.14-1-.19-2.06-.28-3.08v-.27l5.62,1.56,2.44-8.55-8,1.19L.5,19.81A55.5,55.5,0,0,1,8.44,1.92a.73.73,0,0,1,1-.38,24.82,24.82,0,0,1,6.82,2.77,7.62,7.62,0,0,1,.94.76.39.39,0,0,0,.36.11,45.51,45.51,0,0,1,8.79-.75c2.24,0,4.48.05,6.72.11a24.74,24.74,0,0,1,4.85.52,1,1,0,0,0,.84-.22,18.45,18.45,0,0,1,5.1-2.59A28.11,28.11,0,0,1,50.21,1a24.19,24.19,0,0,1,4.34.06l1.35.14a1.27,1.27,0,0,1,1,.72,21.75,21.75,0,0,1,2.16,5.56,41.43,41.43,0,0,1,1,5.64,29.41,29.41,0,0,1,.2,4.69c-.06,1.12-.15,2.23-.24,3.34a.75.75,0,0,1-.06.33.72.72,0,0,0,.24.86c.61.63,1.18,1.29,1.76,2a11.82,11.82,0,0,1,2.59,5.5,16,16,0,0,1,.26,5,22.73,22.73,0,0,1-1.32,5.33,55.36,55.36,0,0,1-9.43,16.43,7.53,7.53,0,0,1-3,2.31,8.17,8.17,0,0,1-2.18.47c-1.17.12-2.36.19-3.53.33A14.22,14.22,0,0,0,37.63,63a1.34,1.34,0,0,1-1,.37q-10.32,0-20.62,0A1.1,1.1,0,0,1,15,62.7c-.44-.82-.93-1.62-1.39-2.43A2.3,2.3,0,0,1,13.45,60Z"/><path class="cls-1" d="M78.36,28a14.36,14.36,0,0,1-5.65-5.33,14.66,14.66,0,0,1-2-7.72,14.67,14.67,0,0,1,2-7.73,14.36,14.36,0,0,1,5.65-5.33A17.1,17.1,0,0,1,86.48,0,17.47,17.47,0,0,1,93.6,1.4a13.62,13.62,0,0,1,5.26,4l-5.18,4.68A8.56,8.56,0,0,0,86.9,6.74a8.44,8.44,0,0,0-4.18,1,7.12,7.12,0,0,0-2.83,2.9,8.84,8.84,0,0,0-1,4.3,8.83,8.83,0,0,0,1,4.29,7.06,7.06,0,0,0,2.83,2.9,8.33,8.33,0,0,0,4.18,1,8.56,8.56,0,0,0,6.78-3.37l5.18,4.68a13.62,13.62,0,0,1-5.26,4,17.47,17.47,0,0,1-7.12,1.4A17.1,17.1,0,0,1,78.36,28Z"/><path class="cls-1" d="M129.86.58V29.35h-8.14V18.13h-11.1V29.35h-8.14V.58h8.14V11.39h11.1V.58Z"/><path class="cls-1" d="M135.61.58h8.14V29.35h-8.14Z"/><path class="cls-1" d="M157.76,7h-8.84V.58h25.77V7H165.9V29.35h-8.14Z"/><path class="cls-1" d="M195.58,23.76H183.41l-2.26,5.59h-8.31L185.55.58h8l12.74,28.77h-8.47Zm-2.39-6-3.7-9.21-3.69,9.21Z"/><path class="cls-1" d="M78.72,62a14.27,14.27,0,0,1-5.65-5.32,15.53,15.53,0,0,1,0-15.46,14.2,14.2,0,0,1,5.65-5.32A17,17,0,0,1,86.84,34,17.45,17.45,0,0,1,94,35.38a13.75,13.75,0,0,1,5.27,4L94,44.1a8.53,8.53,0,0,0-6.79-3.37,8.42,8.42,0,0,0-4.17,1,7.21,7.21,0,0,0-2.84,2.9,9.64,9.64,0,0,0,0,8.59,7.08,7.08,0,0,0,2.84,2.9,8.32,8.32,0,0,0,4.17,1A8.53,8.53,0,0,0,94,53.8l5.18,4.69a13.85,13.85,0,0,1-5.27,4,17.45,17.45,0,0,1-7.11,1.39A17,17,0,0,1,78.72,62Z"/><path class="cls-1" d="M130.21,34.56V63.34h-8.14V52.11H111V63.34h-8.14V34.56H111V45.37h11.1V34.56Z"/><path class="cls-1" d="M136,34.56h8.14V63.34H136Z"/><path class="cls-1" d="M169.84,35.85a9.77,9.77,0,0,1,6,9.36,9.72,9.72,0,0,1-6,9.31,16.44,16.44,0,0,1-6.78,1.29h-5v7.53H149.9V34.56h13.16A16.44,16.44,0,0,1,169.84,35.85Zm-3.49,12.46a3.84,3.84,0,0,0,1.27-3.1,3.92,3.92,0,0,0-1.27-3.13A5.61,5.61,0,0,0,162.57,41h-4.52V49.4h4.52A5.66,5.66,0,0,0,166.35,48.31Z"/><path class="cls-1" d="M14,56.34c-1,0-1.94,0-2.89,0l-2.56-.06a.28.28,0,0,1-.28-.16,19.59,19.59,0,0,1-2-5.51,1.1,1.1,0,0,1,0-.18c0-.21,0-.42,0-.66h5.05c.13,0,.18,0,.2.17a17.66,17.66,0,0,0,1.81,5.34C13.55,55.62,13.77,56,14,56.34Z"/><path class="cls-1" d="M13.45,60h.28l19.33-.19a8.68,8.68,0,0,0,8.57-7.24,9.26,9.26,0,0,0,.12-1.49c0-1.9,0-3.8,0-5.7a7.6,7.6,0,0,0-4.29-6.85c-1.8-1-3.66-1.78-5.5-2.67l-1.14-.54a.39.39,0,0,1-.23-.31,9.74,9.74,0,0,1,0-3.61,5.57,5.57,0,0,1,.52-1.7.31.31,0,0,1,.28-.17c1.15-.23,2.31-.45,3.46-.69,2.65-.57,5.26-1.25,7.86-2.05a.49.49,0,0,0,.27-.22l2.45-5.19.07-.19-2.54-.36c-1.08-.15-2.15-.3-3.23-.43s-2.36-.28-3.55-.38c-1.39-.12-2.79-.21-4.19-.31l-2.17-.14c-.14,0-.17.05-.21.16A45.95,45.95,0,0,0,27,36.33c.06,1.74.2,3.47.43,5.19a38.67,38.67,0,0,0,4.37,13.89c.17.3.31.62.48,1H32l-14,0a1.11,1.11,0,0,1-1-.54,16.2,16.2,0,0,1-2.4-5.2l0-.16c-.05-.27-.09-.54-.13-.83H25.1A6.94,6.94,0,0,0,20,44.13a7.75,7.75,0,0,0-2.14-.26c-2.45,0-4.9.06-7.35.1-1.74,0-3.47.08-5.21.12a.92.92,0,0,1-.82-.47,23.3,23.3,0,0,1-2.41-5.31,43.18,43.18,0,0,1-1.8-7.59c-.14-1-.19-2.06-.28-3.08v-.27l5.62,1.56,2.44-8.55-8,1.19L.5,19.81A55.5,55.5,0,0,1,8.44,1.92a.73.73,0,0,1,1-.38,24.82,24.82,0,0,1,6.82,2.77,7.62,7.62,0,0,1,.94.76.39.39,0,0,0,.36.11,45.51,45.51,0,0,1,8.79-.75c2.24,0,4.48.05,6.72.11a24.74,24.74,0,0,1,4.85.52,1,1,0,0,0,.84-.22,18.45,18.45,0,0,1,5.1-2.59A28.11,28.11,0,0,1,50.21,1a24.19,24.19,0,0,1,4.34.06l1.35.14a1.27,1.27,0,0,1,1,.72,21.75,21.75,0,0,1,2.16,5.56,41.43,41.43,0,0,1,1,5.64,29.41,29.41,0,0,1,.2,4.69c-.06,1.12-.15,2.23-.24,3.34a.75.75,0,0,1-.06.33.72.72,0,0,0,.24.86c.61.63,1.18,1.29,1.76,2a11.82,11.82,0,0,1,2.59,5.5,16,16,0,0,1,.26,5,22.73,22.73,0,0,1-1.32,5.33,55.36,55.36,0,0,1-9.43,16.43,7.53,7.53,0,0,1-3,2.31,8.17,8.17,0,0,1-2.18.47c-1.17.12-2.36.19-3.53.33A14.22,14.22,0,0,0,37.63,63a1.34,1.34,0,0,1-1,.37q-10.32,0-20.62,0A1.1,1.1,0,0,1,15,62.7c-.44-.82-.93-1.62-1.39-2.43A2.3,2.3,0,0,1,13.45,60Z"/></g></g></svg>