<svg xmlns="http://www.w3.org/2000/svg" width="26.449" height="27.734" viewBox="0 0 26.449 27.734">
  <path id="Path_123" data-name="Path 123" d="M1655.2,79.229q-4.221,0-8.444,0a4.631,4.631,0,0,1-3.488-1.469,4.548,4.548,0,0,1-1.272-2.874c-.012-.165-.017-.331-.017-.5q0-5.742,0-11.485a4.7,4.7,0,0,1,4.713-4.753c.311,0,.622,0,.933,0,.054,0,.088,0,.1-.074a7.336,7.336,0,0,1,3.883-5.635,7.5,7.5,0,0,1,4.252-.927,7.639,7.639,0,0,1,6.722,5.064,6.763,6.763,0,0,1,.336,1.461c.01.087.038.115.13.115a8.617,8.617,0,0,1,1.353.049,4.61,4.61,0,0,1,3.291,2.125,4.5,4.5,0,0,1,.732,2.483c.009,1.247,0,2.494,0,3.74q0,3.973,0,7.947a4.7,4.7,0,0,1-3.338,4.529,5.033,5.033,0,0,1-1.453.2Zm.005-2.9h8.487a1.786,1.786,0,0,0,1.83-1.829q0-3.131,0-6.261,0-2.7,0-5.4a1.778,1.778,0,0,0-1.469-1.745,5.873,5.873,0,0,0-.909-.034c-.164,0-.164,0-.164.159q0,1.758,0,3.517c0,.09-.017.118-.114.118q-1.339-.007-2.68,0c-.1,0-.114-.028-.114-.118,0-1.183,0-2.366.005-3.549,0-.1-.016-.13-.124-.13q-4.635,0-9.27,0c-.1,0-.123.025-.122.122,0,1.236,0,2.472,0,3.708,0,.086-.018.112-.109.112q-1.34-.006-2.68,0c-.094,0-.116-.024-.116-.117q0-1.626,0-3.252c0-.163,0-.325,0-.488,0-.052,0-.086-.073-.084-.363.009-.727-.017-1.09.016a1.775,1.775,0,0,0-1.619,1.762q0,5.864,0,11.728a1.661,1.661,0,0,0,.226.85,1.76,1.76,0,0,0,1.61.918Q1650.961,76.329,1655.2,76.326Zm.112-18.176h0q2.283,0,4.565,0c.095,0,.121-.016.1-.116a4.43,4.43,0,0,0-2.354-3.062,4.733,4.733,0,0,0-4.863.148A4.422,4.422,0,0,0,1650.674,58c-.036.152-.034.152.12.152Z" transform="translate(-1641.978 -51.495)"/>
</svg>
